<?xml version="1.0" encoding="UTF-8" standalone="no"?>
<!-- Uploaded to: SVG Repo, www.svgrepo.com, Generator: SVG Repo Mixer Tools -->

<svg
   width="800px"
   height="800px"
   viewBox="0 0 512 512"
   version="1.1"
   id="svg138"
   xmlns="http://www.w3.org/2000/svg"
   xmlns:svg="http://www.w3.org/2000/svg"
   xmlns:rdf="http://www.w3.org/1999/02/22-rdf-syntax-ns#"
   xmlns:cc="http://creativecommons.org/ns#"
   xmlns:dc="http://purl.org/dc/elements/1.1/">
  <defs
     id="defs142" />
  <title
     id="title132">ionicons-v5-g</title>
  <path
     style="fill:#00ffff;stroke:none;stroke-width:18.7578;stroke-linecap:round;stroke-linejoin:round;stroke-dasharray:none"
     d="m 117.7349,143.04949 c 25.9803,4.01239 50.05978,15.80803 58.91677,37.46966 6.09244,13.0036 3.1076,27.88382 4.17871,41.69452 0.96013,138.75718 0.71527,277.53688 1.41218,416.2847 4.79207,21.21081 14.49594,41.98507 31.57153,56.05156 14.21464,12.86051 32.7964,20.84611 51.69847,23.03119 109.16708,-0.24449 218.36895,-0.0669 327.51435,-0.57197 25.16287,-6.94101 48.96775,-21.93341 62.04831,-45.06048 6.07782,-10.86329 11.09612,-22.84897 12.46175,-35.21828 0.54578,-161.21524 -3.09125,-332.44645 -1.85646,-493.65796 -106.18389,0.13121 -503.30358,1.96816 -547.94561,-0.0229 z"
     id="path1047"
     transform="scale(0.64)" />
  <metadata
     id="metadata3639">
    <rdf:RDF>
      <cc:Work
         rdf:about="">
        <dc:title>ionicons-v5-g</dc:title>
      </cc:Work>
    </rdf:RDF>
  </metadata>
</svg>
