<?xml version="1.0" encoding="UTF-8" standalone="no"?>
<!-- Uploaded to: SVG Repo, www.svgrepo.com, Generator: SVG Repo Mixer Tools -->

<svg
   width="800px"
   height="800px"
   viewBox="0 0 512 512"
   version="1.1"
   id="svg138"
   xmlns="http://www.w3.org/2000/svg"
   xmlns:svg="http://www.w3.org/2000/svg"
   xmlns:rdf="http://www.w3.org/1999/02/22-rdf-syntax-ns#"
   xmlns:cc="http://creativecommons.org/ns#"
   xmlns:dc="http://purl.org/dc/elements/1.1/">
  <defs
     id="defs142" />
  <title
     id="title132">ionicons-v5-g</title>
  <path
     d="M445.2,48.05,398,48H128C73.7,48,64,83.7,64,96c30.3,4.2,48,8,48,40V400A64,64,0,0,0,176,464H368a64,64,0,0,0,64-64V96c0-19,11.5-38.35,12.6-40,1.2-1.9,3.4-4.4,3.4-5.5S447.7,48.05,445.2,48.05Z"
     style="fill:none;stroke:#000000;stroke-linecap:round;stroke-linejoin:round;stroke-width:12.09448819;stroke-dasharray:none"
     id="path134" />
  <metadata
     id="metadata3639">
    <rdf:RDF>
      <cc:Work
         rdf:about="">
        <dc:title>ionicons-v5-g</dc:title>
      </cc:Work>
    </rdf:RDF>
  </metadata>
  <path
     style="fill:#cccccc;stroke-width:18.1016;stroke-linecap:round;stroke-linejoin:round;fill-opacity:1"
     d="m 432.02276,82.147165 c -84.24524,0.148058 -168.50315,0.08191 -252.74049,0.363767 -20.74809,4.021031 -42.0831,11.54257 -56.09535,28.211428 -7.12783,8.37524 -12.92402,18.63146 -14.8316,29.49552 1.49447,6.72555 10.30937,4.78565 15.32532,6.4988 19.78944,3.51959 42.06175,11.26503 51.22135,30.65628 7.61016,11.7678 5.26484,26.40542 6.34441,39.56552 1.3237,107.65814 0.75944,215.33189 1.2765,322.99633 0.17051,34.06638 -0.012,68.1598 0.37819,102.20934 5.85865,23.23361 18.82457,45.12841 38.86648,58.78506 15.36777,10.81182 34.04221,17.34472 52.96913,16.30675 99.32286,1.30591 198.66978,1.29482 297.994,0.1174 26.68418,1.50831 53.44501,-10.14745 71.08609,-30.10692 11.16238,-12.94031 19.91883,-28.76658 22.56568,-45.76973 1.74412,-51.96467 0.87657,-103.99204 1.32378,-155.98197 0.4919,-113.5974 -0.0157,-227.20403 1.34908,-340.7948 -0.49057,-20.67171 9.15724,-40.10982 17.7586,-58.521185 0.63935,-7.103447 -9.06643,-3.413881 -13.35381,-4.300598 -80.47911,0.08967 -160.95823,0.179339 -241.43736,0.269008 z"
     id="path6231"
     transform="scale(0.64)" />
</svg>
