<?xml version="1.0" encoding="iso-8859-1"?>
<!-- Uploaded to: SVG Repo, www.svgrepo.com, Generator: SVG Repo Mixer Tools -->
<svg version="1.1" id="Layer_1" xmlns="http://www.w3.org/2000/svg" xmlns:xlink="http://www.w3.org/1999/xlink" 
	 viewBox="0 0 501.551 501.551" xml:space="preserve">
<path style="fill:#CDD6E0;" d="M392.882,71.053c-6.269-2.09-12.539-3.135-19.853-3.135v36.571c5.224,0,10.449,1.045,15.673,4.18
	c10.449,5.224,17.763,16.718,17.763,30.302v73.143c0,10.449,8.359,18.808,18.808,18.808s18.808-8.359,18.808-18.808v-73.143
	C444.082,106.58,422.139,79.412,392.882,71.053z"/>
<path style="fill:#ACB3BA;" d="M392.882,71.053l-4.18,37.616c-5.224-2.09-10.449-4.18-15.673-4.18V67.918
	C380.343,67.918,386.612,68.963,392.882,71.053z"/>
<path style="fill:#40596B;" d="M381.388,475.429l-25.078-73.143c-2.09-9.404-10.449-15.673-19.853-15.673H140.016
	c-9.404,0-17.763,6.269-19.853,15.673l-25.078,73.143c-3.135,13.584,7.314,26.122,19.853,26.122H360.49
	C374.073,501.551,384.522,489.012,381.388,475.429z"/>
<rect x="163.004" y="365.714" style="fill:#E2E2E2;" width="150.465" height="19.853"/>
<g>
	<path style="fill:#F2F2F2;" d="M96.131,44.931l2.09,15.673v1.045H57.469c0,28.212,19.853,52.245,47.02,57.469l26.122,226.743
		c1.045,11.494,10.449,20.898,20.898,20.898h173.453c10.449,0,19.853-9.404,20.898-20.898l33.437-285.257l2.09-15.673
		C381.388,44.931,96.131,44.931,96.131,44.931z"/>
	<path style="fill:#F2F2F2;" d="M382.433,19.853H92.996c-7.314,0-12.539,5.224-12.539,12.539l0,0
		c0,7.314,5.224,12.539,12.539,12.539h289.437c7.314,0,12.539-5.224,12.539-12.539l0,0
		C394.971,25.078,389.747,19.853,382.433,19.853z"/>
</g>
<path style="fill:#40596B;" d="M287.347,0H183.902c-11.494,0-19.853,9.404-19.853,19.853H307.2C307.2,9.404,298.841,0,287.347,0z"/>
<circle style="fill:#FFFFFF;" cx="238.237" cy="444.082" r="32.392"/>
<circle style="fill:#FF7058;" cx="238.237" cy="424.229" r="7.314"/>
<g>
	<polygon style="fill:#E2E2E2;" points="96.131,44.931 97.176,60.604 379.298,60.604 380.343,44.931 	"/>
	<path style="fill:#E2E2E2;" d="M316.604,88.816c-7.314-1.045-13.584,4.18-13.584,11.494l-24.033,217.339
		c-1.045,7.314,4.18,13.584,11.494,13.584c7.314,1.045,13.584-4.18,13.584-11.494L328.098,102.4
		C328.098,95.086,322.873,88.816,316.604,88.816z"/>
	<path style="fill:#E2E2E2;" d="M159.869,88.816c-7.314,1.045-12.539,7.314-11.494,13.584l24.033,218.384
		c1.045,7.314,7.314,12.539,13.584,11.494c7.314-1.045,12.539-7.314,11.494-13.584l-24.033-217.339
		C173.453,92.996,167.184,87.771,159.869,88.816z"/>
</g>
</svg>