<?xml version="1.0" encoding="UTF-8" standalone="no"?>
<svg
   viewBox="0 0 512 512"
   version="1.1"
   id="svg4"
   xmlns="http://www.w3.org/2000/svg"
   xmlns:svg="http://www.w3.org/2000/svg">
  <defs
     id="defs8" />
  <!--!Font Awesome Free 7.2.0 by @fontawesome - https://fontawesome.com License - https://fontawesome.com/license/free Copyright 2026 Fonticons, Inc.-->
  <path
     d="M256 48a208 208 0 1 1 0 416 208 208 0 1 1 0-416zm0 464a256 256 0 1 0 0-512 256 256 0 1 0 0 512zM167 167c-9.4 9.4-9.4 24.6 0 33.9l55 55-55 55c-9.4 9.4-9.4 24.6 0 33.9s24.6 9.4 33.9 0l55-55 55 55c9.4 9.4 24.6 9.4 33.9 0s9.4-24.6 0-33.9l-55-55 55-55c9.4-9.4 9.4-24.6 0-33.9s-24.6-9.4-33.9 0l-55 55-55-55c-9.4-9.4-24.6-9.4-33.9 0z"
     id="path2"
     style="fill:#ff0000" />
  <path
     style="fill:#ffffff;stroke:none;stroke-width:4.66856;stroke-linecap:round;stroke-linejoin:round"
     d="M 253.52473,45.278649 C 192.01167,45.753002 131.6046,75.074755 92.913889,122.85157 57.114817,166.19633 40.015808,224.311 46.732166,280.13305 c 6.466287,58.46739 38.997687,113.31404 87.000364,147.26271 42.10065,30.36671 95.69571,44.25215 147.23166,37.79326 55.69551,-6.41306 108.04972,-36.40628 142.01573,-80.96959 34.8432,-44.72571 50.07983,-103.96828 41.25115,-159.96124 C 455.2606,163.55733 418.09337,107.8359 365.56437,76.144861 332.06727,55.720295 292.76475,44.833395 253.52473,45.278649 Z M 185.71291,163.2871 c 7.88168,-0.82189 13.02494,6.43388 18.35292,10.96547 16.84273,16.32555 33.09626,33.37845 50.02997,49.52751 4.13542,1.9276 6.45049,-3.94982 9.40039,-5.92561 17.06967,-16.63161 33.39727,-34.05088 51.03215,-50.08849 3.45347,-3.50436 8.24674,-5.11858 13.11702,-4.47165 11.49269,-1.34429 22.38561,9.92776 21.30277,21.45115 -0.0105,6.26136 -3.29237,11.84132 -7.95331,15.82434 -17.32463,18.26268 -35.71641,35.67774 -53.11175,53.83947 -1.93402,4.13894 3.95375,6.44997 5.93426,9.39703 16.85021,17.25901 34.55255,33.74864 50.72555,51.58785 3.46091,3.37302 4.7366,8.13967 4.1516,12.86034 0.64914,10.65637 -8.791,20.34331 -19.36879,20.65985 -6.40799,0.73767 -12.63585,-2.05848 -16.83291,-6.85356 -18.6182,-17.67427 -36.36357,-36.4761 -54.92634,-54.17984 -4.14039,-1.9302 -6.44589,3.96139 -9.39103,5.94464 -17.66194,17.40813 -34.74911,35.44219 -53.04755,52.08875 -10.54539,6.85712 -26.10436,1.71158 -30.7322,-9.89263 -2.07181,-5.0284 -1.62342,-10.93145 -0.29434,-16.08324 5.03903,-8.66208 13.11459,-15.03248 19.80097,-22.34138 13.232,-13.49453 26.93328,-26.65653 39.87933,-40.34952 1.92318,-4.13842 -3.95773,-6.44482 -5.93777,-9.3918 -16.64333,-17.03407 -34.07551,-33.32273 -50.12491,-50.92333 -3.22957,-3.32319 -5.10366,-7.78767 -4.42726,-12.46561 -0.58264,-5.0995 0.86008,-10.39243 4.54427,-14.17251 3.79289,-4.66515 9.66782,-7.84019 15.68876,-6.99895 0.7294,-0.003 1.4588,-0.005 2.1882,-0.008 z"
     id="path476" />
</svg>
