<?xml version="1.0" encoding="UTF-8" standalone="no"?>
<!-- Created with Inkscape (http://www.inkscape.org/) -->

<svg
   width="53mm"
   height="106mm"
   viewBox="0 0 53 106"
   version="1.1"
   id="svg5"
   xml:space="preserve"
   xmlns="http://www.w3.org/2000/svg"
   xmlns:svg="http://www.w3.org/2000/svg"><defs
     id="defs2" /><g
     id="layer1"><path
       style="fill:none;stroke:#000000;stroke-width:1;stroke-linecap:round;stroke-linejoin:round"
       d="m 3.9408925,9.3148371 5.194813,-5.0156816 c 0,0 13.6089795,-0.9890064 17.7340175,-0.8956574 4.480721,0.101398 18.450541,1.2539205 18.450541,1.2539205 l 4.299157,4.6574185 0.17913,14.8679129 -2.68697,3.045235 v 38.513268 l 2.866101,2.866104 -0.358261,15.226175 -5.194814,4.836552 -11.106152,1.970445 -0.08957,12.180941 c 0,0 -4.388721,0.71653 -6.000904,0.71653 -1.612183,0 -6.269602,-0.62696 -6.269602,-0.62696 L 20.779252,90.819662 9.6731001,89.028346 4.1200241,83.654402 V 68.249095 L 6.6278648,65.741253 6.8069962,27.048854 3.7617611,23.287093 Z"
       id="path356" /><path
       style="fill:none;stroke:#000000;stroke-width:1;stroke-linecap:round;stroke-linejoin:round"
       d="m 3.9408925,23.287093 c 0,0 21.2270805,-0.447829 23.3766575,-0.447829 2.149578,0 22.212305,0.985223 22.212305,0.985223"
       id="path454" /><path
       style="fill:none;stroke:#000000;stroke-width:1;stroke-linecap:round;stroke-linejoin:round"
       d="m 4.3439378,68.588661 c 0,0 20.5105552,0 22.6601322,0 2.149578,0 22.749699,0.179131 22.749699,0.179131"
       id="path454-6" /><path
       style="fill:#511b96;fill-opacity:1;stroke:none;stroke-width:2.55886;stroke-linecap:round;stroke-linejoin:round;stroke-opacity:1"
       d="m 97.91052,14.607767 c -20.927588,0.24571 -41.946292,1.189162 -62.725994,3.26483 -6.209797,6.157064 -12.946341,11.946132 -18.824673,18.335412 -0.0652,16.769611 -0.933094,33.712297 -0.50042,50.374128 40.937783,-0.672016 82.151674,-2.668726 123.144087,-0.273643 15.521,0.651474 31.07626,1.718213 46.56682,2.310021 2.06159,-2.93346 0.57926,-7.274809 1.07241,-10.689708 C 186.39907,63.934522 186.4812,49.845713 185.83349,35.914452 180.68679,30.136424 175.60747,24.150105 169.99463,18.89079 145.97632,17.417384 122.00231,14.365845 97.91052,14.607767 Z"
       id="path1131"
       transform="scale(0.26458333)" /><path
       style="fill:#511b96;fill-opacity:1;stroke:none;stroke-width:2.55886;stroke-linecap:round;stroke-linejoin:round;stroke-opacity:1"
       d="m 17.310607,260.61912 c -0.3949,18.13247 -0.05637,36.38759 -0.169258,54.56722 6.491119,6.94019 13.623983,13.59876 20.662711,20.03593 13.893439,2.43447 28.260727,4.12671 41.849064,7.16702 1.10721,15.06729 -0.217809,30.4255 1.674068,45.34927 7.53169,0.60643 15.073255,2.17329 22.640098,2.16644 6.60879,-0.73168 13.29725,-1.18174 19.7855,-2.69008 1.41644,-5.03156 0.19972,-10.96882 0.60563,-16.34796 0.15319,-9.74297 -0.33188,-19.75409 0.5805,-29.34115 13.9259,-2.93763 28.05145,-4.99575 41.97601,-7.81232 6.42278,-5.90069 13.2268,-11.57053 19.18435,-17.85805 0.32738,-17.92568 1.19398,-35.86538 1.01951,-53.78705 -3.36371,-1.62753 -7.82726,-0.22947 -11.56746,-0.77332 -52.53384,-0.52999 -105.070611,-0.67199 -157.606005,-0.98405 l -0.609067,0.29565 z"
       id="path2582"
       transform="scale(0.26458333)" /><path
       style="fill:#6b24c7;fill-opacity:1;stroke:none;stroke-width:2.55886;stroke-linecap:round;stroke-linejoin:round;stroke-opacity:1"
       d="m 88.823473,88.137186 c -23.244828,0.250332 -46.490789,0.642148 -69.723755,1.446628 -1.723654,2.617763 3.99102,5.682211 5.133594,8.395238 3.806505,2.731318 3.043171,7.064448 2.95974,11.159258 -0.244591,46.67383 -0.488452,93.34767 -0.731929,140.02151 -2.407395,2.81069 -5.627183,5.1301 -7.571655,8.22092 3.186212,1.67072 7.88846,0.19846 11.623244,0.71027 51.371779,0.063 102.911728,0.29832 154.182128,0.38818 -0.63872,-3.24544 -5.05252,-5.40107 -7.08427,-8.22833 -2.5016,-3.11184 -0.458,-8.09448 -1.12066,-11.96323 0,-45.3118 0,-90.62361 0,-135.93541 2.81833,-3.472013 6.40265,-6.523963 8.75646,-10.250692 -3.16081,-1.684314 -7.71596,-0.618566 -11.38071,-1.288695 C 145.55125,89.1235 117.19386,87.95225 88.823473,88.137186 Z"
       id="path3136"
       transform="scale(0.26458333)" /><path
       style="fill:none;fill-opacity:1;stroke:#000000;stroke-width:1;stroke-linecap:round;stroke-linejoin:round;stroke-opacity:1"
       d="m 20.664959,90.979449 c 0,0 4.034733,0.282745 5.744711,0.219411 1.709979,-0.06333 7.156578,-0.506658 7.156578,-0.506658"
       id="path4158" /><path
       style="fill:none;fill-opacity:1;stroke:#327fba;stroke-width:1;stroke-linecap:round;stroke-linejoin:round;stroke-opacity:1"
       d="m 21.343067,96.835459 c 0,0 3.356624,0.633323 5.066603,0.696657 1.709978,0.06333 6.333254,-1.013322 6.333254,-1.013322"
       id="path4160" /></g></svg>
